<svg width="24" height="24" viewBox="0 0 24 24" fill="none" xmlns="http://www.w3.org/2000/svg">
<path d="M7.7597 8.32365L8.11516 9.04187L8.60401 8.40688L12.8128 2.94L15.4772 8.32365L15.8327 9.04187L16.3215 8.40688L20.5303 2.94L23.3319 8.60084L23.3242 8.60475L20.885 3.67635L20.5296 2.95813L20.0407 3.59312L15.832 9.06L13.1675 3.67635L12.8121 2.95813L12.3232 3.59312L8.11445 9.06L5.45001 3.67635L5.09456 2.95813L4.6057 3.59312L0.706448 8.65797L0.698195 8.65148L5.09527 2.94L7.7597 8.32365ZM7.7597 20.3237L8.11516 21.0419L8.60401 20.4069L12.8128 14.94L15.4772 20.3237L15.8327 21.0419L16.3215 20.4069L20.5303 14.94L23.3319 20.6008L23.3242 20.6048L20.885 15.6763L20.5296 14.9581L20.0407 15.5931L15.832 21.06L13.1675 15.6763L12.8121 14.9581L12.3232 15.5931L8.11445 21.06L5.45001 15.6763L5.09456 14.9581L4.6057 15.5931L0.706448 20.658L0.698196 20.6515L5.09527 14.94L7.7597 20.3237Z" fill="#3379AF" stroke="#3379AF"/>
</svg>
