<svg width="24" height="24" viewBox="0 0 24 24" fill="none" xmlns="http://www.w3.org/2000/svg">
<path d="M16.5 16C16.5 17.8575 17.947 19.3771 19.7753 19.4929C18.6609 19.4223 17.688 18.8306 17.0975 17.9566L16.5006 17.0731L16.203 18.097C15.663 19.9553 14.4232 21.5157 12.7881 22.4744C15.0088 21.1723 16.5 18.7603 16.5 16ZM16.5 16C16.5 14.1323 17.9629 12.6063 19.8053 12.5053C18.8386 12.5583 17.9768 13.0031 17.3749 13.685L16.5 14.6763V16ZM8.05584 2.66601L8.5 3.52521L8.94416 2.66601C9.52442 1.54354 10.6194 0.732075 11.9157 0.542372C9.98352 0.825172 8.5 2.48934 8.5 4.5C8.5 2.43779 6.93943 0.740064 4.93482 0.523361C6.29619 0.670505 7.45341 1.50064 8.05584 2.66601Z" fill="#3379AF" stroke="#3379AF"/>
</svg>
