<svg width="160" height="160" viewBox="0 0 160 160" fill="none" xmlns="http://www.w3.org/2000/svg">
<path d="M158 80C158 123.078 123.078 158 80 158C36.9218 158 2 123.078 2 80C2 36.9218 36.9218 2 80 2C123.078 2 158 36.9218 158 80Z" fill="white" stroke="#3379AF" stroke-width="4"/>
<path d="M124.547 55.6184C122.881 55.6184 121.332 56.1002 120.033 56.9211L103.154 43.1477C103.602 42.1691 103.855 41.0889 103.855 39.9517C103.855 35.5666 100.153 32 95.6019 32C91.0504 32 87.3478 35.5666 87.3478 39.9517C87.3478 41.6014 87.8724 43.1352 88.7686 44.407L74.4253 61.2178C73.4374 60.8141 72.3521 60.5901 71.2129 60.5901C66.6614 60.5901 62.9587 64.1567 62.9587 68.5419C62.9587 69.1696 63.0422 69.7775 63.1862 70.3634L41.1423 82.5354C39.6601 81.172 37.659 80.3298 35.4525 80.3298C30.9019 80.329 27.2 83.898 27.2 88.283C27.2 92.6681 30.9019 96.2347 35.4533 96.2347C36.0508 96.2347 36.6311 96.17 37.1934 96.0541L47.2144 113.649C45.7322 115.087 44.8148 117.066 44.8148 119.248C44.8148 123.633 48.5166 127.2 53.0681 127.2C57.6195 127.2 61.3222 123.633 61.3222 119.248C61.3222 118.477 61.2027 117.733 60.9875 117.028L75.9904 107.726C77.4357 108.925 79.3124 109.656 81.3642 109.656C85.9157 109.656 89.6175 106.089 89.6175 101.704C89.6175 97.3258 85.9264 93.7625 81.3839 93.7522L75.6958 75.2103C77.9588 73.7901 79.4624 71.3354 79.4624 68.544C79.4624 66.8959 78.9394 65.3638 78.0448 64.0934L92.3898 47.2793C93.3769 47.6815 94.4621 47.9054 95.5989 47.9054C97.2661 47.9054 98.8169 47.4229 100.117 46.5996L116.996 60.3692C116.547 61.3493 116.293 62.4312 116.293 63.5698C116.293 67.9549 119.995 71.5215 124.547 71.5215C129.098 71.5215 132.8 67.9549 132.8 63.5698C132.8 59.1846 129.098 55.618 124.547 55.618L124.547 55.6184ZM71.2131 65.1132C73.1757 65.1132 74.7733 66.6517 74.7733 68.5434C74.7733 70.4359 73.1765 71.9743 71.2131 71.9743C69.2488 71.9743 67.652 70.4359 67.652 68.5434C67.652 66.6517 69.2488 65.1132 71.2131 65.1132ZM73.1152 101.702C73.1152 102.474 73.2363 103.219 73.4499 103.925L58.4476 113.225C57.0006 112.025 55.1248 111.294 53.0704 111.294C52.473 111.294 51.8927 111.358 51.3312 111.474L41.311 93.8793C42.7932 92.441 43.7107 90.4633 43.7107 88.2816C43.7107 87.6515 43.6264 87.0436 43.4815 86.4561L65.5191 74.2857C66.9989 75.6475 68.9968 76.4905 71.1991 76.4937L76.8866 95.0324C74.6204 96.4526 73.1143 98.9089 73.1143 101.702L73.1152 101.702ZM31.8957 88.2821C31.8957 86.3896 33.4925 84.8512 35.4559 84.8512C37.4202 84.8512 39.017 86.3897 39.017 88.2821C39.017 90.1731 37.4202 91.7123 35.4559 91.7123C33.4933 91.7115 31.8957 90.1722 31.8957 88.2821ZM53.0722 122.676C51.1095 122.676 49.512 121.138 49.512 119.246C49.512 117.354 51.1088 115.815 53.0722 115.815C55.0365 115.815 56.6332 117.354 56.6332 119.246C56.6332 121.138 55.0356 122.676 53.0722 122.676ZM84.9302 101.702C84.9302 103.593 83.3334 105.132 81.3699 105.132C79.4073 105.132 77.8097 103.594 77.8097 101.702C77.8097 99.8098 79.4065 98.2713 81.3699 98.2713C83.3334 98.2713 84.9302 99.8098 84.9302 101.702ZM95.6051 43.3829C93.6409 43.3829 92.0441 41.8444 92.0441 39.9519C92.0441 38.061 93.6409 36.5218 95.6051 36.5218C97.5678 36.5218 99.1654 38.0603 99.1654 39.9519C99.1645 41.8444 97.5677 43.3829 95.6051 43.3829ZM124.549 67.0013C122.584 67.0013 120.988 65.4629 120.988 63.5712C120.988 61.6803 122.584 60.1411 124.549 60.1411C126.511 60.1411 128.109 61.6795 128.109 63.5712C128.109 65.4621 126.511 67.0013 124.549 67.0013Z" fill="#3379AF"/>
</svg>
