<svg width="24" height="24" viewBox="0 0 24 24" fill="none" xmlns="http://www.w3.org/2000/svg">
<path d="M20.3065 0.717985C20.3069 0.718433 20.3074 0.718881 20.3078 0.719329C19.6054 1.52785 19.045 2.46528 18.5737 3.36307C17.5849 5.2466 16.5959 7.98341 16.5069 11.4873L16.4975 11.8609L16.5059 11.5121C16.5908 7.99695 17.5819 5.25155 18.5732 3.36322C19.0659 2.42467 19.6277 1.4964 20.3065 0.717985ZM16.5059 12.4879L16.4974 12.138L16.5069 12.5127C16.5959 16.0166 17.5849 18.7534 18.5737 20.6369C19.045 21.5347 19.6054 22.4721 20.3078 23.2806C20.3074 23.2811 20.3069 23.2815 20.3065 23.282C19.6277 22.5036 19.0659 21.5753 18.5732 20.6367C17.5819 18.7484 16.5908 16.003 16.5059 12.4879ZM19.9596 23.6258C19.9592 23.6262 19.9593 23.6261 19.9597 23.6257L19.9596 23.6258ZM3.6935 23.282C3.69305 23.2815 3.6926 23.2811 3.69215 23.2806C4.39456 22.4721 4.95503 21.5347 5.42633 20.6369C6.4151 18.7534 7.40405 16.0166 7.49305 12.5127L7.50256 12.1382L7.49411 12.4879C7.40921 16.003 6.4181 18.7484 5.42681 20.6367C4.93412 21.5753 4.37225 22.5036 3.6935 23.282ZM7.49412 11.5121L7.50255 11.8614L7.49305 11.4873C7.40406 7.98342 6.41511 5.2466 5.42634 3.36307C4.95504 2.46528 4.39456 1.52785 3.69216 0.719328C3.6926 0.71888 3.69305 0.718433 3.6935 0.717985C4.37226 1.4964 4.93412 2.42467 5.42682 3.36322C6.41811 5.25155 7.40922 7.99695 7.49412 11.5121ZM4.04065 0.373919C4.04068 0.373888 4.04056 0.374008 4.04028 0.374261L4.04037 0.374177C4.04053 0.374024 4.04063 0.373939 4.04065 0.373919ZM4.04036 23.6258L4.04026 23.6257L4.04036 23.6258ZM19.9597 0.374247C19.9593 0.373842 19.9592 0.373792 19.9596 0.374178L19.9597 0.374247Z" fill="#3379AF" stroke="#3379AF"/>
</svg>
