<svg width="24" height="24" viewBox="0 0 24 24" fill="none" xmlns="http://www.w3.org/2000/svg">
<mask id="path-1-inside-1_50_721" fill="white">
<path fill-rule="evenodd" clip-rule="evenodd" d="M8 0V1H22.2929L10.0001 13.293L2.85356 6.14648L2.14645 6.85359L9.29295 14.0001L0 23.2931L0.707107 24.0003L10.0001 14.7072L17.1465 21.8536L17.8536 21.1465L10.7072 14.0001L23 1.70711V16H24V0H8Z"/>
</mask>
<path fill-rule="evenodd" clip-rule="evenodd" d="M8 0V1H22.2929L10.0001 13.293L2.85356 6.14648L2.14645 6.85359L9.29295 14.0001L0 23.2931L0.707107 24.0003L10.0001 14.7072L17.1465 21.8536L17.8536 21.1465L10.7072 14.0001L23 1.70711V16H24V0H8Z" fill="#3379AF"/>
<path d="M8 0V-1H7V0H8ZM8 1H7V2H8V1ZM22.2929 1L23 1.7071L24.7071 0H22.2929V1ZM10.0001 13.293L9.29295 14.0001L10.0001 14.7072L10.7072 14.0001L10.0001 13.293ZM2.85356 6.14648L3.56067 5.43938L2.85356 4.73227L2.14645 5.43938L2.85356 6.14648ZM2.14645 6.85359L1.43935 6.14648L0.73224 6.85359L1.43935 7.5607L2.14645 6.85359ZM9.29295 14.0001L10.0001 14.7072L10.7072 14.0001L10.0001 13.293L9.29295 14.0001ZM0 23.2931L-0.707111 22.586L-1.41421 23.2931L-0.707107 24.0002L0 23.2931ZM0.707107 24.0003L-3.99532e-07 24.7074L0.70711 25.4145L1.41422 24.7074L0.707107 24.0003ZM10.0001 14.7072L10.7072 14.0001L10.0001 13.293L9.29295 14.0001L10.0001 14.7072ZM17.1465 21.8536L16.4393 22.5607L17.1465 23.2678L17.8536 22.5607L17.1465 21.8536ZM17.8536 21.1465L18.5607 21.8536L19.2678 21.1465L18.5607 20.4394L17.8536 21.1465ZM10.7072 14.0001L10.0001 13.293L9.29295 14.0001L10.0001 14.7072L10.7072 14.0001ZM23 1.70711H24V-0.707121L22.2929 1.00001L23 1.70711ZM23 16H22V17H23V16ZM24 16V17H25V16H24ZM24 0H25V-1H24V0ZM9 1V0H7V1H9ZM22.2929 0H8V2H22.2929V0ZM10.7072 14.0001L23 1.7071L21.5858 0.292897L9.29294 12.5859L10.7072 14.0001ZM2.14645 6.85359L9.29295 14.0001L10.7072 12.5859L3.56067 5.43938L2.14645 6.85359ZM2.85356 7.5607L3.56067 6.85359L2.14645 5.43938L1.43935 6.14648L2.85356 7.5607ZM10.0001 13.293L2.85356 6.14648L1.43935 7.5607L8.58584 14.7072L10.0001 13.293ZM0.707111 24.0002L10.0001 14.7072L8.58584 13.293L-0.707111 22.586L0.707111 24.0002ZM1.41421 23.2931L0.707107 22.586L-0.707107 24.0002L-3.99532e-07 24.7074L1.41421 23.2931ZM9.29295 14.0001L-3.93742e-06 23.2931L1.41422 24.7074L10.7072 15.4143L9.29295 14.0001ZM17.8536 21.1465L10.7072 14.0001L9.29295 15.4143L16.4393 22.5607L17.8536 21.1465ZM17.1465 20.4394L16.4393 21.1465L17.8536 22.5607L18.5607 21.8536L17.1465 20.4394ZM10.0001 14.7072L17.1465 21.8536L18.5607 20.4394L11.4143 13.293L10.0001 14.7072ZM22.2929 1.00001L10.0001 13.293L11.4143 14.7072L23.7071 2.41421L22.2929 1.00001ZM24 16V1.70711H22V16H24ZM24 15H23V17H24V15ZM23 0V16H25V0H23ZM8 1H24V-1H8V1Z" fill="#3379AF" mask="url(#path-1-inside-1_50_721)"/>
</svg>
