<svg width="24" height="24" viewBox="0 0 24 24" fill="none" xmlns="http://www.w3.org/2000/svg">
<path d="M0.5 0.550003C1.28043 0.708395 1.9294 1.23036 2.26158 1.93286L2.63089 2.71389L3.12411 2.00457C3.75711 1.09422 4.80921 0.5 6 0.5C4.067 0.5 2.5 2.067 2.5 4V3C2.5 1.79052 1.64112 0.781644 0.5 0.550009V0.550003ZM9.0628 2.3046L9.5 3.09249L9.9372 2.3046C10.4802 1.32612 11.477 0.63637 12.6421 0.51807C10.8772 0.697305 9.5 2.18782 9.5 4C9.5 2.06962 7.93724 0.504243 6.00785 0.500009C7.32166 0.502892 8.4662 1.22945 9.0628 2.3046Z" fill="#3379AF" stroke="#3379AF"/>
</svg>
