<svg width="24" height="24" viewBox="0 0 24 24" fill="none" xmlns="http://www.w3.org/2000/svg">
<path d="M12 6.5C8.20699 6.5 4.99425 8.98442 3.9003 12.4147C4.68027 9.96891 6.53742 8.0035 8.91496 7.07702L10.328 6.52641L8.86456 6.12865C8.44127 6.0136 8.05766 5.87509 7.70693 5.71777C8.76633 6.19295 10.1337 6.5 12 6.5ZM12 6.5C15.3467 6.5 18.2417 8.43419 19.6281 11.2457C18.6927 9.34857 17.0703 7.85062 15.085 7.07702L13.672 6.52641L15.1354 6.12865C15.4438 6.04484 15.7311 5.94856 16 5.84164C14.984 6.24563 13.6987 6.5 12 6.5Z" fill="#3379AF" stroke="#3379AF"/>
</svg>
