<svg width="24" height="24" viewBox="0 0 24 24" fill="none" xmlns="http://www.w3.org/2000/svg">
<path d="M17.4375 22.5625C15.5977 23.4261 13.3819 23.4942 11.4975 23.4995L11.4975 23.4992C14.0821 23.4885 16.6212 23.3496 18.9249 21.6891C18.4403 22.0387 17.9403 22.3265 17.4375 22.5625ZM0.905952 0.669204C1.56297 0.924732 2.08558 1.45009 2.33706 2.10994L2.67402 2.99409L3.21463 2.21756C3.93808 1.1784 5.13986 0.5 6.5 0.5C4.29086 0.5 2.5 2.29086 2.5 4.5V3C2.5 1.93882 1.83883 1.03206 0.905952 0.669204ZM19.1969 20.6815L19.2183 20.7197C18.7969 19.9806 18.542 19.1342 18.5047 18.2306C18.5414 19.1172 18.7882 19.9508 19.1969 20.6815ZM19.5105 21.242L19.5112 21.2433L19.1732 21.5035L19.5105 21.242ZM21.3188 19.1417C20.9054 19.7849 20.4506 20.3357 19.9702 20.8074L19.9844 20.7934C20.4616 20.3227 20.9111 19.776 21.3188 19.1417ZM19.8338 21.5908L19.8361 21.5935C19.8669 21.6291 19.8981 21.6643 19.9298 21.6992C19.8973 21.6635 19.8653 21.6273 19.8338 21.5908ZM18.5 8.88243L19.3335 8.13646C19.7761 7.7403 20.3594 7.5 21 7.5C19.6193 7.5 18.5 8.61929 18.5 10V8.88243ZM10.0558 2.66601L10.5 3.52522L10.9442 2.66601C11.5207 1.55072 12.6054 0.742471 13.8908 0.546089C11.9708 0.839463 10.5 2.49797 10.5 4.5C10.5 2.43762 8.93918 0.73979 6.93434 0.523309C8.29591 0.670307 9.45334 1.50051 10.0558 2.66601ZM20.0138 21.7895C20.9076 22.7294 22.1316 23.3542 23.5 23.4776V23.4776C22.132 23.3544 20.9086 22.7305 20.0138 21.7895Z" fill="#3379AF" stroke="#3379AF"/>
</svg>
